<?xml version="1.0" standalone="no"?>
<!DOCTYPE svg PUBLIC "-//W3C//DTD SVG 20010904//EN"
 "http://www.w3.org/TR/2001/REC-SVG-20010904/DTD/svg10.dtd">
<svg version="1.0" xmlns="http://www.w3.org/2000/svg"
 width="369.000000pt" height="219.000000pt" viewBox="0 0 369.000000 219.000000"
 preserveAspectRatio="xMidYMid meet">
<metadata>
Created by potrace 1.15, written by Peter Selinger 2001-2017
</metadata>
<g transform="translate(0.000000,219.000000) scale(0.100000,-0.100000)"
fill="#000000" stroke="none">
<path d="M2130 1525 l-255 -75 -277 72 -278 72 -286 -75 -286 -74 7 -370 c5
-259 10 -373 18 -381 7 -6 39 -21 72 -32 33 -11 152 -52 264 -91 l204 -71 -6
389 -5 390 31 10 c100 33 524 151 540 151 17 0 591 -148 592 -153 0 -1 -3
-175 -7 -386 -5 -211 -7 -386 -5 -388 2 -2 117 40 255 94 248 95 252 97 256
127 3 17 8 137 11 266 3 129 8 285 11 345 l6 110 -283 68 c-156 37 -293 69
-304 72 -11 2 -135 -29 -275 -70z"/>
</g>
</svg>
